# xmcd
# Track frame offsets:
# 150
# 15312
# 31317
# 48266
# 67362
# 84661
# 100110
# 118115
# 134834
# 152133
# 168366
# 182951
# 200752
# 218815
# 233131
#
# Disc length: 3259 seconds
# Revision: 0
# Processed by: cddbd v1.5.2PL0 Copyright (c) Steve Scherf et al.
# Submitted via: VisiTrax 2.10.3.257 - For more info visit www.synapsa.com
#
DISCID=d80cb90f
DTITLE=Kareoke - Guy Country Karaoke All Star Karaoke
DYEAR=2003
DGENRE=General Contemporary Country
TTITLE0=Mark Wills - Nineteen Something
TTITLE1=Kenny Chesney - No Shoes, No Shirt, No Problems
TTITLE2=Diamond Rio - One More Day
TTITLE3=Tim McGraw - Red Ragtop
TTITLE4=Keith Urban - Somebody Like You
TTITLE5=Kenny Chesney - The Good Stuff
TTITLE6=Joe Nichols - The Impossible
TTITLE7=Brooks and Dunn - The Long Goodbye
TTITLE8=Allen, Gary - The One
TTITLE9=Rascal Flatts - These Days
TTITLE10=Andy Griggs - Tonight I Want To Be Your Man
TTITLE11=Tim McGraw - Unbroken
TTITLE12=Alan Jackson - Work In Progress
TTITLE13=Brad Paisley - Wrapped Around
TTITLE14=Toby Keith - You Ain't Much Fun
EXTD=
EXTT0=
EXTT1=
EXTT2=
EXTT3=
EXTT4=
EXTT5=
EXTT6=
EXTT7=
EXTT8=
EXTT9=
EXTT10=
EXTT11=
EXTT12=
EXTT13=
EXTT14=
PLAYORDER=
